;TYPE=PLATED
;Layer: PTH_Through
;EasyEDA Pro Client v2.0.30.0bf95a9f.56a808, 2023-06-11 15:17:04
;Gerber Generator version 0.3
M48
METRIC,LZ,000.000
;Hole size 1 = 0.305 METRIC
T01C0.305
;Hole size 2 = 1.050 METRIC
T02C1.050
;Hole size 3 = 1.100 METRIC
T03C1.100
;Hole size 4 = 1.102 METRIC
T04C1.102
%
G05
G90
T01
X054229Y011938
X023622Y009779
T02
X016831Y008763
X014331Y008763
X011831Y008763
X009331Y008763
T03
X048474Y008763
X045974Y008763
X043474Y008763
X059015Y008763
X056515Y008763
X054015Y008763
X037933Y008763
X035433Y008763
X032933Y008763
X027392Y008763
X024892Y008763
X022392Y008763
T04
X059014Y013843
X056474Y013843
X053934Y013843
X051394Y013843
X048854Y013843
X046314Y013843
X043774Y013843
X041234Y013843
X038694Y013843
X036154Y013843
X033614Y013843
X031074Y013843
X028534Y013843
X025994Y013843
X023454Y013843
X059014Y039243
X056474Y039243
X053934Y039243
X051394Y039243
X048854Y039243
X046314Y039243
X043774Y039243
X041234Y039243
X038694Y039243
X036154Y039243
X033614Y039243
X031074Y039243
X028534Y039243
X025994Y039243
X023454Y039243
X015748Y013843
X013208Y013843
X010668Y013843
X008128Y013843
X015748Y026543
X013208Y026543
X010668Y026543
X008128Y026543
M30