G04 Layer: TopLayer*
G04 EasyEDA Pro v2.0.30.0bf95a9f.56a808, 2023-06-11 15:17:04*
G04 Gerber Generator version 0.3*
G04 Scale: 100 percent, Rotated: No, Reflected: No*
G04 Dimensions in millimeters*
G04 Leading zeros omitted, absolute positions, 3 integers and 3 decimals*
%FSLAX33Y33*%
%MOMM*%
%AMPolygonMacro1*4,1,4,-0.958,-0.999,0.968,-0.991,0.96,0.999,-0.968,0.991,-0.958,-0.999,0*%
%ADD10C,1.65*%
%ADD11C,1.7*%
%ADD12C,1.651*%
%ADD13PolygonMacro1*%
%ADD14C,0.61*%
%ADD15C,2.007*%
%ADD16C,1.194*%
%ADD17C,0.406*%
%ADD18C,0.254*%
G75*


G04 Tear Start*
G36*
G01X49297Y8711D02*
G01X49888Y9333D01*
G01X49044Y10177D01*
G01X48422Y9586D01*
G01X49297Y8711D01*
G37*
G36*
G01X45355Y8217D02*
G01X45377Y7360D01*
G01X46571Y7361D01*
G01X46593Y8217D01*
G01X45355D01*
G37*
G36*
G01X44093Y9309D02*
G01X43601Y10166D01*
G01X43347D01*
G01X42855Y9309D01*
G01X44093D01*
G37*
G36*
G01X59634Y9309D02*
G01X59612Y10166D01*
G01X58418D01*
G01X58396Y9309D01*
G01X59634D01*
G37*
G36*
G01X55691Y8815D02*
G01X55101Y8193D01*
G01X55945Y7349D01*
G01X56567Y7940D01*
G01X55691Y8815D01*
G37*
G36*
G01X53192Y8815D02*
G01X52933Y7861D01*
G01X53113Y7681D01*
G01X54067Y7940D01*
G01X53192Y8815D01*
G37*
G36*
G01X17469Y9325D02*
G01X16958Y10208D01*
G01X16704D01*
G01X16194Y9325D01*
G01X17469D01*
G37*
G36*
G01X15050Y9217D02*
G01X14593Y10185D01*
G01X14339Y10225D01*
G01X13791Y9419D01*
G01X15050Y9217D01*
G37*
G36*
G01X10983Y8816D02*
G01X10720Y7831D01*
G01X10899Y7652D01*
G01X11884Y7915D01*
G01X10983Y8816D01*
G37*
G36*
G01X10088Y9150D02*
G01X10173Y10040D01*
G01X9887Y10113D01*
G01X8852Y9465D01*
G01X10088Y9150D01*
G37*
G36*
G01X37985Y9586D02*
G01X37085Y9898D01*
G01X36798Y9611D01*
G01X37110Y8711D01*
G01X37985Y9586D01*
G37*
G36*
G01X34609Y8815D02*
G01X34297Y7915D01*
G01X34585Y7628D01*
G01X35485Y7940D01*
G01X34609Y8815D01*
G37*
G36*
G01X35381Y7940D02*
G01X36281Y7628D01*
G01X36568Y7915D01*
G01X36256Y8815D01*
G01X35381Y7940D01*
G37*
G36*
G01X27444Y9586D02*
G01X26490Y9845D01*
G01X26310Y9665D01*
G01X26569Y8711D01*
G01X27444Y9586D01*
G37*
G36*
G01X27950Y9371D02*
G01X27508Y10186D01*
G01X27102Y10143D01*
G01X26719Y9240D01*
G01X27950Y9371D01*
G37*
G36*
G01X24944Y9586D02*
G01X24044Y9898D01*
G01X23756Y9611D01*
G01X24068Y8711D01*
G01X24944Y9586D01*
G37*
G36*
G01X24273Y8217D02*
G01X24689Y7360D01*
G01X25095Y7361D01*
G01X25511Y8217D01*
G01X24273D01*
G37*
G36*
G01X59660Y14358D02*
G01X59182Y15240D01*
G01X58928Y15252D01*
G01X58423Y14419D01*
G01X59660Y14358D01*
G37*
G36*
G01X57120Y14358D02*
G01X56642Y15240D01*
G01X56388Y15252D01*
G01X55883Y14419D01*
G01X57120Y14358D01*
G37*
G36*
G01X53109Y13866D02*
G01X52870Y12917D01*
G01X53055Y12744D01*
G01X54015Y13021D01*
G01X53109Y13866D01*
G37*
G36*
G01X50569Y13866D02*
G01X50330Y12917D01*
G01X50515Y12744D01*
G01X51475Y13021D01*
G01X50569Y13866D01*
G37*
G36*
G01X45490Y39295D02*
G01X45232Y38340D01*
G01X45412Y38161D01*
G01X46366Y38419D01*
G01X45490Y39295D01*
G37*
G36*
G01X42950Y39295D02*
G01X42692Y38340D01*
G01X42872Y38161D01*
G01X43826Y38419D01*
G01X42950Y39295D01*
G37*
G36*
G01X15696Y13019D02*
G01X16651Y12761D01*
G01X16830Y12940D01*
G01X16572Y13895D01*
G01X15696Y13019D01*
G37*
G36*
G01X12471Y13472D02*
G01X12383Y12608D01*
G01X12668Y12534D01*
G01X13668Y13158D01*
G01X12471Y13472D01*
G37*
G36*
G01X9844Y13895D02*
G01X9586Y12940D01*
G01X9765Y12761D01*
G01X10720Y13019D01*
G01X9844Y13895D01*
G37*
G36*
G01X8747Y14389D02*
G01X8255Y15246D01*
G01X8001D01*
G01X7509Y14389D01*
G01X8747D01*
G37*
G36*
G01X15696Y25719D02*
G01X16651Y25461D01*
G01X16830Y25640D01*
G01X16572Y26595D01*
G01X15696Y25719D01*
G37*
G36*
G01X14032Y26491D02*
G01X14290Y27446D01*
G01X14111Y27625D01*
G01X13156Y27367D01*
G01X14032Y26491D01*
G37*
G36*
G01X11492Y26491D02*
G01X11750Y27446D01*
G01X11571Y27625D01*
G01X10616Y27367D01*
G01X11492Y26491D01*
G37*
G36*
G01X54000Y11736D02*
G01X54026Y11419D01*
G01X54432D01*
G01X54458Y11736D01*
G01X54000D01*
G37*
G04 Tear End*

G04 Pad Start*
G54D10*
G01X48474Y8763D03*
G01X45974Y8763D03*
G01X43474Y8763D03*
G01X59015Y8763D03*
G01X56515Y8763D03*
G01X54015Y8763D03*
G54D11*
G01X16831Y8763D03*
G01X14331Y8763D03*
G01X11831Y8763D03*
G01X9331Y8763D03*
G54D10*
G01X37933Y8763D03*
G01X35433Y8763D03*
G01X32933Y8763D03*
G01X27392Y8763D03*
G01X24892Y8763D03*
G01X22392Y8763D03*
G54D12*
G01X59014Y13843D03*
G01X56474Y13843D03*
G01X53934Y13843D03*
G01X51394Y13843D03*
G01X48854Y13843D03*
G01X46314Y13843D03*
G01X43774Y13843D03*
G01X41234Y13843D03*
G01X38694Y13843D03*
G01X36154Y13843D03*
G01X33614Y13843D03*
G01X31074Y13843D03*
G01X28534Y13843D03*
G01X25994Y13843D03*
G01X23454Y13843D03*
G01X59014Y39243D03*
G01X56474Y39243D03*
G01X53934Y39243D03*
G01X51394Y39243D03*
G01X48854Y39243D03*
G01X46314Y39243D03*
G01X43774Y39243D03*
G01X41234Y39243D03*
G01X38694Y39243D03*
G01X36154Y39243D03*
G01X33614Y39243D03*
G01X31074Y39243D03*
G01X28534Y39243D03*
G01X25994Y39243D03*
G01X23454Y39243D03*
G01X15748Y13843D03*
G01X13208Y13843D03*
G01X10668Y13843D03*
G01X8128Y13843D03*
G01X15748Y26543D03*
G01X13208Y26543D03*
G01X10668Y26543D03*
G01X8128Y26543D03*
G54D13*
G01X69025Y24638D03*
G01X69025Y27178D03*
G04 Pad End*

G04 Via Start*
G54D14*
G01X54229Y11938D03*
G01X23622Y9779D03*
G04 Via End*

G04 Track Start*
G54D15*
G01X68961Y27178D02*
G01X64008Y27178D01*
G01X64135Y24638D02*
G01X64135Y8763D01*
G01X59015D01*
G01X68961Y24638D02*
G01X64135Y24638D01*
G01X64008Y27178D02*
G01X64008Y30988D01*
G01X56515Y6350D02*
G01X56515Y8763D01*
G54D16*
G01X59015Y8763D02*
G01X59015Y10465D01*
G01X50176Y10465D02*
G01X48474Y8763D01*
G01X56515Y8763D02*
G01X54102Y6350D01*
G01X45974D01*
G01Y8763D01*
G54D17*
G01X54229Y11938D02*
G01X54229Y10468D01*
G01X54232Y10465D01*
G54D16*
G01X59015Y10465D02*
G01X54232Y10465D01*
G01X50176D01*
G54D17*
G01X45974Y6350D02*
G01X37846Y6350D01*
G01X35433Y8763D01*
G01X37933Y8763D02*
G01X35393Y11303D01*
G01X27305D01*
G01Y8850D01*
G01X35433Y8763D02*
G01X32766Y6096D01*
G01X24892D01*
G01Y8763D01*
G54D15*
G01X71247Y6350D02*
G01X56515Y6350D01*
G01X64008Y30988D02*
G01X71247Y30988D01*
G01Y6350D01*
G54D17*
G01X24892Y8763D02*
G01X23876Y9779D01*
G01X23622D01*
G54D18*
G01X53975Y13843D02*
G01X52008Y11876D01*
G01X47078Y7401D02*
G01X52653Y7401D01*
G01X43985Y12322D02*
G01X43474Y11811D01*
G01X25654Y11938D02*
G01X18923Y11938D01*
G01X18923Y23368D02*
G01X15748Y26543D01*
G54D17*
G01X27392Y8763D02*
G01X27305Y8850D01*
G54D18*
G01X52008Y11876D02*
G01X47078Y11876D01*
G01Y7401D01*
G01X52653Y7401D02*
G01X54015Y8763D01*
G01X51435Y13843D02*
G01X49914Y12322D01*
G01X43985D01*
G01X43474Y11811D02*
G01X43474Y8763D01*
G01X56515Y13843D02*
G01X56515Y19685D01*
G01X64008Y27178D01*
G01X59055Y13843D02*
G01X59055Y19685D01*
G01X64008Y24638D01*
G01X27305Y8850D02*
G01X25654Y10501D01*
G01Y11938D01*
G01X18923Y11938D02*
G01X18923Y23368D01*
G01X46314Y39243D02*
G01X41865Y34794D01*
G01X21459D01*
G01X13208Y26543D01*
G01X43774Y39243D02*
G01X41204Y36672D01*
G01X20797D01*
G01X10668Y26543D01*
G01X16831Y8763D02*
G01X16831Y12760D01*
G01X15748Y13843D01*
G01X9331Y8763D02*
G01X9331Y9377D01*
G01X13208Y13254D01*
G01Y13843D01*
G01X11831Y8763D02*
G01X8500Y5432D01*
G01X8182D01*
G01X4781Y8832D01*
G01Y9290D01*
G01X7725Y12233D01*
G01X9058D01*
G01X10668Y13843D01*
G01X14331Y8763D02*
G01X14466Y8898D01*
G01Y17024D01*
G01X11297Y20193D01*
G01X8128Y17024D01*
G01Y13843D01*
G04 Track End*

M02*
