G04 Layer: BottomLayer*
G04 EasyEDA Pro v2.0.30.0bf95a9f.56a808, 2023-06-11 15:17:04*
G04 Gerber Generator version 0.3*
G04 Scale: 100 percent, Rotated: No, Reflected: No*
G04 Dimensions in millimeters*
G04 Leading zeros omitted, absolute positions, 3 integers and 3 decimals*
%FSLAX33Y33*%
%MOMM*%
%ADD10C,1.65*%
%ADD11C,1.7*%
%ADD12C,1.651*%
%ADD13C,0.61*%
%ADD14C,0.406*%
%ADD15C,0.254*%
G75*


G04 Tear Start*
G36*
G01X38756Y8711D02*
G01X39068Y9611D01*
G01X38781Y9898D01*
G01X37881Y9586D01*
G01X38756Y8711D01*
G37*
G36*
G01X8076Y25719D02*
G01X9031Y25461D01*
G01X9210Y25640D01*
G01X8952Y26595D01*
G01X8076Y25719D01*
G37*
G36*
G01X54027Y12167D02*
G01X53710Y12141D01*
G01Y11735D01*
G01X54027Y11709D01*
G01Y12167D01*
G37*
G36*
G01X23641Y10083D02*
G01X23345Y10235D01*
G01X23166Y10056D01*
G01X23318Y9760D01*
G01X23641Y10083D01*
G37*
G04 Tear End*

G04 Pad Start*
G54D10*
G01X48474Y8763D03*
G01X45974Y8763D03*
G01X43474Y8763D03*
G01X59015Y8763D03*
G01X56515Y8763D03*
G01X54015Y8763D03*
G54D11*
G01X16831Y8763D03*
G01X14331Y8763D03*
G01X11831Y8763D03*
G01X9331Y8763D03*
G54D10*
G01X37933Y8763D03*
G01X35433Y8763D03*
G01X32933Y8763D03*
G01X27392Y8763D03*
G01X24892Y8763D03*
G01X22392Y8763D03*
G54D12*
G01X59014Y13843D03*
G01X56474Y13843D03*
G01X53934Y13843D03*
G01X51394Y13843D03*
G01X48854Y13843D03*
G01X46314Y13843D03*
G01X43774Y13843D03*
G01X41234Y13843D03*
G01X38694Y13843D03*
G01X36154Y13843D03*
G01X33614Y13843D03*
G01X31074Y13843D03*
G01X28534Y13843D03*
G01X25994Y13843D03*
G01X23454Y13843D03*
G01X59014Y39243D03*
G01X56474Y39243D03*
G01X53934Y39243D03*
G01X51394Y39243D03*
G01X48854Y39243D03*
G01X46314Y39243D03*
G01X43774Y39243D03*
G01X41234Y39243D03*
G01X38694Y39243D03*
G01X36154Y39243D03*
G01X33614Y39243D03*
G01X31074Y39243D03*
G01X28534Y39243D03*
G01X25994Y39243D03*
G01X23454Y39243D03*
G01X15748Y13843D03*
G01X13208Y13843D03*
G01X10668Y13843D03*
G01X8128Y13843D03*
G01X15748Y26543D03*
G01X13208Y26543D03*
G01X10668Y26543D03*
G01X8128Y26543D03*
G04 Pad End*

G04 Via Start*
G54D13*
G01X54229Y11938D03*
G01X23622Y9779D03*
G04 Via End*

G04 Track Start*
G54D14*
G01X54229Y11938D02*
G01X41108Y11938D01*
G01X37933Y8763D01*
G54D15*
G01X23622Y9779D02*
G01X20701Y12700D01*
G01Y21971D01*
G01X12700D01*
G01X8128Y26543D01*
G04 Track End*

M02*
