G04 Layer: DrillDrawingLayer*
G04 EasyEDA Pro v2.0.30.0bf95a9f.56a808, 2023-06-11 15:17:04*
G04 Gerber Generator version 0.3*
G04 Scale: 100 percent, Rotated: No, Reflected: No*
G04 Dimensions in millimeters*
G04 Leading zeros omitted, absolute positions, 3 integers and 3 decimals*
%FSLAX33Y33*%
%MOMM*%
%ADD10C,0.254*%
G75*


G04 Image Start*
G36*
G01X54029Y12138D02*
G01X54029Y12101D01*
G01X54066D01*
G01X54392D01*
G01Y11775D01*
G01X54066D01*
G01Y12101D01*
G01X54029D01*
G01Y11739D01*
G01X54429D01*
G01Y12138D01*
G37*
G36*
G01X23423Y9979D02*
G01X23423Y9942D01*
G01X23459D01*
G01X23785D01*
G01Y9616D01*
G01X23459D01*
G01Y9942D01*
G01X23423D01*
G01Y9580D01*
G01X23822D01*
G01Y9979D01*
G37*
G36*
G01X16831Y8963D02*
G01X16811Y8962D01*
G01X16791Y8959D01*
G01X16772Y8954D01*
G01X16754Y8947D01*
G01X16736Y8939D01*
G01X16720Y8929D01*
G01X16705Y8917D01*
G01X16690Y8904D01*
G01X16677Y8890D01*
G01X16666Y8875D01*
G01X16656Y8858D01*
G01X16648Y8841D01*
G01X16641Y8822D01*
G01X16636Y8804D01*
G01X16633Y8784D01*
G01X16632Y8763D01*
G01X16665D01*
G01X16666Y8780D01*
G01X16668Y8797D01*
G01X16673Y8813D01*
G01X16678Y8828D01*
G01X16685Y8842D01*
G01X16693Y8856D01*
G01X16703Y8869D01*
G01X16714Y8881D01*
G01X16725Y8892D01*
G01X16739Y8901D01*
G01X16752Y8909D01*
G01X16767Y8916D01*
G01X16782Y8922D01*
G01X16798Y8926D01*
G01X16814Y8929D01*
G01X16831D01*
G01X16848D01*
G01X16865Y8926D01*
G01X16880Y8922D01*
G01X16896Y8916D01*
G01X16910Y8909D01*
G01X16924Y8901D01*
G01X16937Y8892D01*
G01X16948Y8881D01*
G01X16960Y8869D01*
G01X16969Y8856D01*
G01X16977Y8842D01*
G01X16984Y8828D01*
G01X16990Y8813D01*
G01X16994Y8797D01*
G01X16997Y8780D01*
G01Y8763D01*
G01Y8746D01*
G01X16994Y8730D01*
G01X16990Y8714D01*
G01X16984Y8698D01*
G01X16977Y8684D01*
G01X16969Y8671D01*
G01X16960Y8657D01*
G01X16948Y8646D01*
G01X16937Y8635D01*
G01X16924Y8625D01*
G01X16910Y8617D01*
G01X16896Y8610D01*
G01X16880Y8605D01*
G01X16865Y8600D01*
G01X16848Y8598D01*
G01X16831Y8597D01*
G01X16814Y8598D01*
G01X16798Y8600D01*
G01X16782Y8605D01*
G01X16767Y8610D01*
G01X16752Y8617D01*
G01X16739Y8625D01*
G01X16725Y8635D01*
G01X16714Y8646D01*
G01X16703Y8657D01*
G01X16693Y8671D01*
G01X16685Y8684D01*
G01X16678Y8698D01*
G01X16673Y8714D01*
G01X16668Y8730D01*
G01X16666Y8746D01*
G01X16665Y8763D01*
G01X16632D01*
G01X16633Y8743D01*
G01X16636Y8723D01*
G01X16641Y8704D01*
G01X16648Y8686D01*
G01X16656Y8668D01*
G01X16666Y8652D01*
G01X16677Y8637D01*
G01X16690Y8622D01*
G01X16705Y8610D01*
G01X16720Y8598D01*
G01X16736Y8588D01*
G01X16754Y8580D01*
G01X16772Y8573D01*
G01X16791Y8568D01*
G01X16811Y8565D01*
G01X16831Y8564D01*
G01X16851Y8565D01*
G01X16871Y8568D01*
G01X16890Y8573D01*
G01X16909Y8580D01*
G01X16926Y8588D01*
G01X16943Y8598D01*
G01X16958Y8610D01*
G01X16972Y8622D01*
G01X16985Y8637D01*
G01X16997Y8652D01*
G01X17006Y8668D01*
G01X17015Y8686D01*
G01X17022Y8704D01*
G01X17027Y8723D01*
G01X17030Y8743D01*
G01X17031Y8763D01*
G01X17030Y8784D01*
G01X17027Y8804D01*
G01X17022Y8822D01*
G01X17015Y8841D01*
G01X17006Y8858D01*
G01X16997Y8875D01*
G01X16985Y8890D01*
G01X16972Y8904D01*
G01X16958Y8917D01*
G01X16943Y8929D01*
G01X16926Y8939D01*
G01X16909Y8947D01*
G01X16890Y8954D01*
G01X16871Y8959D01*
G01X16851Y8962D01*
G37*
G36*
G01X14331Y8963D02*
G01X14310Y8962D01*
G01X14291Y8959D01*
G01X14272Y8954D01*
G01X14253Y8947D01*
G01X14236Y8939D01*
G01X14219Y8929D01*
G01X14204Y8917D01*
G01X14190Y8904D01*
G01X14177Y8890D01*
G01X14166Y8875D01*
G01X14155Y8858D01*
G01X14147Y8841D01*
G01X14141Y8822D01*
G01X14136Y8804D01*
G01X14133Y8784D01*
G01X14132Y8763D01*
G01X14165D01*
G01X14166Y8780D01*
G01X14168Y8797D01*
G01X14172Y8813D01*
G01X14178Y8828D01*
G01X14185Y8842D01*
G01X14193Y8856D01*
G01X14203Y8869D01*
G01X14213Y8881D01*
G01X14226Y8892D01*
G01X14238Y8901D01*
G01X14252Y8909D01*
G01X14266Y8916D01*
G01X14281Y8922D01*
G01X14298Y8926D01*
G01X14314Y8929D01*
G01X14331D01*
G01X14348D01*
G01X14364Y8926D01*
G01X14380Y8922D01*
G01X14396Y8916D01*
G01X14410Y8909D01*
G01X14424Y8901D01*
G01X14437Y8892D01*
G01X14449Y8881D01*
G01X14459Y8869D01*
G01X14469Y8856D01*
G01X14477Y8842D01*
G01X14484Y8828D01*
G01X14490Y8813D01*
G01X14494Y8797D01*
G01X14496Y8780D01*
G01X14497Y8763D01*
G01X14496Y8746D01*
G01X14494Y8730D01*
G01X14490Y8714D01*
G01X14484Y8698D01*
G01X14477Y8684D01*
G01X14469Y8671D01*
G01X14459Y8657D01*
G01X14449Y8646D01*
G01X14437Y8635D01*
G01X14424Y8625D01*
G01X14410Y8617D01*
G01X14396Y8610D01*
G01X14380Y8605D01*
G01X14364Y8600D01*
G01X14348Y8598D01*
G01X14331Y8597D01*
G01X14314Y8598D01*
G01X14298Y8600D01*
G01X14281Y8605D01*
G01X14266Y8610D01*
G01X14252Y8617D01*
G01X14238Y8625D01*
G01X14226Y8635D01*
G01X14213Y8646D01*
G01X14203Y8657D01*
G01X14193Y8671D01*
G01X14185Y8684D01*
G01X14178Y8698D01*
G01X14172Y8714D01*
G01X14168Y8730D01*
G01X14166Y8746D01*
G01X14165Y8763D01*
G01X14132D01*
G01X14133Y8743D01*
G01X14136Y8723D01*
G01X14141Y8704D01*
G01X14147Y8686D01*
G01X14155Y8668D01*
G01X14166Y8652D01*
G01X14177Y8637D01*
G01X14190Y8622D01*
G01X14204Y8610D01*
G01X14219Y8598D01*
G01X14236Y8588D01*
G01X14253Y8580D01*
G01X14272Y8573D01*
G01X14291Y8568D01*
G01X14310Y8565D01*
G01X14331Y8564D01*
G01X14352Y8565D01*
G01X14371Y8568D01*
G01X14390Y8573D01*
G01X14408Y8580D01*
G01X14426Y8588D01*
G01X14442Y8598D01*
G01X14458Y8610D01*
G01X14472Y8622D01*
G01X14485Y8637D01*
G01X14496Y8652D01*
G01X14506Y8668D01*
G01X14515Y8686D01*
G01X14521Y8704D01*
G01X14526Y8723D01*
G01X14529Y8743D01*
G01X14530Y8763D01*
G01X14529Y8784D01*
G01X14526Y8804D01*
G01X14521Y8822D01*
G01X14515Y8841D01*
G01X14506Y8858D01*
G01X14496Y8875D01*
G01X14485Y8890D01*
G01X14472Y8904D01*
G01X14458Y8917D01*
G01X14442Y8929D01*
G01X14426Y8939D01*
G01X14408Y8947D01*
G01X14390Y8954D01*
G01X14371Y8959D01*
G01X14352Y8962D01*
G37*
G36*
G01X11831Y8963D02*
G01X11811Y8962D01*
G01X11791Y8959D01*
G01X11772Y8954D01*
G01X11754Y8947D01*
G01X11736Y8939D01*
G01X11720Y8929D01*
G01X11704Y8917D01*
G01X11690Y8904D01*
G01X11677Y8890D01*
G01X11666Y8875D01*
G01X11656Y8858D01*
G01X11647Y8841D01*
G01X11641Y8822D01*
G01X11636Y8804D01*
G01X11633Y8784D01*
G01X11632Y8763D01*
G01X11665D01*
G01X11666Y8780D01*
G01X11668Y8797D01*
G01X11672Y8813D01*
G01X11678Y8828D01*
G01X11685Y8842D01*
G01X11694Y8856D01*
G01X11703Y8869D01*
G01X11714Y8881D01*
G01X11726Y8892D01*
G01X11738Y8901D01*
G01X11752Y8909D01*
G01X11767Y8916D01*
G01X11782Y8922D01*
G01X11798Y8926D01*
G01X11814Y8929D01*
G01X11831D01*
G01X11848D01*
G01X11865Y8926D01*
G01X11881Y8922D01*
G01X11896Y8916D01*
G01X11911Y8909D01*
G01X11924Y8901D01*
G01X11937Y8892D01*
G01X11949Y8881D01*
G01X11959Y8869D01*
G01X11969Y8856D01*
G01X11977Y8842D01*
G01X11984Y8828D01*
G01X11990Y8813D01*
G01X11994Y8797D01*
G01X11996Y8780D01*
G01X11997Y8763D01*
G01X11996Y8746D01*
G01X11994Y8730D01*
G01X11990Y8714D01*
G01X11984Y8698D01*
G01X11977Y8684D01*
G01X11969Y8671D01*
G01X11959Y8657D01*
G01X11949Y8646D01*
G01X11937Y8635D01*
G01X11924Y8625D01*
G01X11911Y8617D01*
G01X11896Y8610D01*
G01X11881Y8605D01*
G01X11865Y8600D01*
G01X11848Y8598D01*
G01X11831Y8597D01*
G01X11814Y8598D01*
G01X11798Y8600D01*
G01X11782Y8605D01*
G01X11767Y8610D01*
G01X11752Y8617D01*
G01X11738Y8625D01*
G01X11726Y8635D01*
G01X11714Y8646D01*
G01X11703Y8657D01*
G01X11694Y8671D01*
G01X11685Y8684D01*
G01X11678Y8698D01*
G01X11672Y8714D01*
G01X11668Y8730D01*
G01X11666Y8746D01*
G01X11665Y8763D01*
G01X11632D01*
G01X11633Y8743D01*
G01X11636Y8723D01*
G01X11641Y8704D01*
G01X11647Y8686D01*
G01X11656Y8668D01*
G01X11666Y8652D01*
G01X11677Y8637D01*
G01X11690Y8622D01*
G01X11704Y8610D01*
G01X11720Y8598D01*
G01X11736Y8588D01*
G01X11754Y8580D01*
G01X11772Y8573D01*
G01X11791Y8568D01*
G01X11811Y8565D01*
G01X11831Y8564D01*
G01X11852Y8565D01*
G01X11871Y8568D01*
G01X11891Y8573D01*
G01X11909Y8580D01*
G01X11926Y8588D01*
G01X11943Y8598D01*
G01X11958Y8610D01*
G01X11972Y8622D01*
G01X11985Y8637D01*
G01X11996Y8652D01*
G01X12007Y8668D01*
G01X12015Y8686D01*
G01X12022Y8704D01*
G01X12026Y8723D01*
G01X12029Y8743D01*
G01X12030Y8763D01*
G01X12029Y8784D01*
G01X12026Y8804D01*
G01X12022Y8822D01*
G01X12015Y8841D01*
G01X12007Y8858D01*
G01X11996Y8875D01*
G01X11985Y8890D01*
G01X11972Y8904D01*
G01X11958Y8917D01*
G01X11943Y8929D01*
G01X11926Y8939D01*
G01X11909Y8947D01*
G01X11891Y8954D01*
G01X11871Y8959D01*
G01X11852Y8962D01*
G37*
G36*
G01X9331Y8963D02*
G01X9311Y8962D01*
G01X9291Y8959D01*
G01X9272Y8954D01*
G01X9253Y8947D01*
G01X9236Y8939D01*
G01X9220Y8929D01*
G01X9204Y8917D01*
G01X9190Y8904D01*
G01X9177Y8890D01*
G01X9166Y8875D01*
G01X9156Y8858D01*
G01X9147Y8841D01*
G01X9140Y8822D01*
G01X9136Y8804D01*
G01X9133Y8784D01*
G01X9132Y8763D01*
G01X9165D01*
G01X9166Y8780D01*
G01X9168Y8797D01*
G01X9172Y8813D01*
G01X9178Y8828D01*
G01X9185Y8842D01*
G01X9193Y8856D01*
G01X9203Y8869D01*
G01X9214Y8881D01*
G01X9225Y8892D01*
G01X9238Y8901D01*
G01X9252Y8909D01*
G01X9266Y8916D01*
G01X9282Y8922D01*
G01X9297Y8926D01*
G01X9314Y8929D01*
G01X9331D01*
G01X9348D01*
G01X9364Y8926D01*
G01X9380Y8922D01*
G01X9395Y8916D01*
G01X9410Y8909D01*
G01X9424Y8901D01*
G01X9437Y8892D01*
G01X9448Y8881D01*
G01X9459Y8869D01*
G01X9469Y8856D01*
G01X9477Y8842D01*
G01X9484Y8828D01*
G01X9489Y8813D01*
G01X9494Y8797D01*
G01X9496Y8780D01*
G01X9497Y8763D01*
G01X9496Y8746D01*
G01X9494Y8730D01*
G01X9489Y8714D01*
G01X9484Y8698D01*
G01X9477Y8684D01*
G01X9469Y8671D01*
G01X9459Y8657D01*
G01X9448Y8646D01*
G01X9437Y8635D01*
G01X9424Y8625D01*
G01X9410Y8617D01*
G01X9395Y8610D01*
G01X9380Y8605D01*
G01X9364Y8600D01*
G01X9348Y8598D01*
G01X9331Y8597D01*
G01X9314Y8598D01*
G01X9297Y8600D01*
G01X9282Y8605D01*
G01X9266Y8610D01*
G01X9252Y8617D01*
G01X9238Y8625D01*
G01X9225Y8635D01*
G01X9214Y8646D01*
G01X9203Y8657D01*
G01X9193Y8671D01*
G01X9185Y8684D01*
G01X9178Y8698D01*
G01X9172Y8714D01*
G01X9168Y8730D01*
G01X9166Y8746D01*
G01X9165Y8763D01*
G01X9132D01*
G01X9133Y8743D01*
G01X9136Y8723D01*
G01X9140Y8704D01*
G01X9147Y8686D01*
G01X9156Y8668D01*
G01X9166Y8652D01*
G01X9177Y8637D01*
G01X9190Y8622D01*
G01X9204Y8610D01*
G01X9220Y8598D01*
G01X9236Y8588D01*
G01X9253Y8580D01*
G01X9272Y8573D01*
G01X9291Y8568D01*
G01X9311Y8565D01*
G01X9331Y8564D01*
G01X9351Y8565D01*
G01X9371Y8568D01*
G01X9390Y8573D01*
G01X9409Y8580D01*
G01X9426Y8588D01*
G01X9443Y8598D01*
G01X9458Y8610D01*
G01X9472Y8622D01*
G01X9485Y8637D01*
G01X9497Y8652D01*
G01X9506Y8668D01*
G01X9515Y8686D01*
G01X9521Y8704D01*
G01X9527Y8723D01*
G01X9530Y8743D01*
G01X9531Y8763D01*
G01X9530Y8784D01*
G01X9527Y8804D01*
G01X9521Y8822D01*
G01X9515Y8841D01*
G01X9506Y8858D01*
G01X9497Y8875D01*
G01X9485Y8890D01*
G01X9472Y8904D01*
G01X9458Y8917D01*
G01X9443Y8929D01*
G01X9426Y8939D01*
G01X9409Y8947D01*
G01X9390Y8954D01*
G01X9371Y8959D01*
G01X9351Y8962D01*
G37*
G36*
G01X48275Y8936D02*
G01X48294Y8902D01*
G01X48332D01*
G01X48616D01*
G01X48545Y8780D01*
G01X48474Y8657D01*
G01X48403Y8780D01*
G01X48332Y8902D01*
G01X48294D01*
G01X48474Y8590D01*
G01X48573Y8763D01*
G01X48674Y8936D01*
G37*
G36*
G01X45774Y8936D02*
G01X45794Y8902D01*
G01X45832D01*
G01X46116D01*
G01X46045Y8780D01*
G01X45974Y8657D01*
G01X45903Y8780D01*
G01X45832Y8902D01*
G01X45794D01*
G01X45874Y8763D01*
G01X45974Y8590D01*
G01X46173Y8936D01*
G37*
G36*
G01X43274Y8936D02*
G01X43294Y8902D01*
G01X43332D01*
G01X43616D01*
G01X43545Y8780D01*
G01X43474Y8657D01*
G01X43403Y8780D01*
G01X43332Y8902D01*
G01X43294D01*
G01X43374Y8763D01*
G01X43474Y8590D01*
G01X43673Y8936D01*
G37*
G36*
G01X58816Y8936D02*
G01X58835Y8902D01*
G01X58873D01*
G01X59157D01*
G01X59086Y8780D01*
G01X59015Y8657D01*
G01X58944Y8780D01*
G01X58873Y8902D01*
G01X58835D01*
G01X59015Y8590D01*
G01X59114Y8763D01*
G01X59215Y8936D01*
G37*
G36*
G01X56315Y8936D02*
G01X56335Y8902D01*
G01X56373D01*
G01X56657D01*
G01X56586Y8780D01*
G01X56515Y8657D01*
G01X56444Y8780D01*
G01X56373Y8902D01*
G01X56335D01*
G01X56415Y8763D01*
G01X56515Y8590D01*
G01X56714Y8936D01*
G37*
G36*
G01X53815Y8936D02*
G01X53835Y8902D01*
G01X53873D01*
G01X54157D01*
G01X54086Y8780D01*
G01X54015Y8657D01*
G01X53944Y8780D01*
G01X53873Y8902D01*
G01X53835D01*
G01X53915Y8763D01*
G01X54015Y8590D01*
G01X54214Y8936D01*
G37*
G36*
G01X37734Y8936D02*
G01X37753Y8902D01*
G01X37791D01*
G01X38075D01*
G01X38004Y8780D01*
G01X37933Y8657D01*
G01X37862Y8780D01*
G01X37791Y8902D01*
G01X37753D01*
G01X37933Y8590D01*
G01X38032Y8763D01*
G01X38133Y8936D01*
G37*
G36*
G01X35233Y8936D02*
G01X35253Y8902D01*
G01X35291D01*
G01X35575D01*
G01X35504Y8780D01*
G01X35433Y8657D01*
G01X35362Y8780D01*
G01X35291Y8902D01*
G01X35253D01*
G01X35333Y8763D01*
G01X35433Y8590D01*
G01X35632Y8936D01*
G37*
G36*
G01X32733Y8936D02*
G01X32753Y8902D01*
G01X32791D01*
G01X33075D01*
G01X33004Y8780D01*
G01X32933Y8657D01*
G01X32862Y8780D01*
G01X32791Y8902D01*
G01X32753D01*
G01X32833Y8763D01*
G01X32933Y8590D01*
G01X33132Y8936D01*
G37*
G36*
G01X27193Y8936D02*
G01X27212Y8902D01*
G01X27250D01*
G01X27534D01*
G01X27463Y8780D01*
G01X27392Y8657D01*
G01X27321Y8780D01*
G01X27250Y8902D01*
G01X27212D01*
G01X27392Y8590D01*
G01X27491Y8763D01*
G01X27592Y8936D01*
G37*
G36*
G01X24692Y8936D02*
G01X24712Y8902D01*
G01X24750D01*
G01X25034D01*
G01X24963Y8780D01*
G01X24892Y8657D01*
G01X24821Y8780D01*
G01X24750Y8902D01*
G01X24712D01*
G01X24792Y8763D01*
G01X24892Y8590D01*
G01X25091Y8936D01*
G37*
G36*
G01X22192Y8936D02*
G01X22212Y8902D01*
G01X22250D01*
G01X22534D01*
G01X22463Y8780D01*
G01X22392Y8657D01*
G01X22321Y8780D01*
G01X22250Y8902D01*
G01X22212D01*
G01X22292Y8763D01*
G01X22392Y8590D01*
G01X22591Y8936D01*
G37*
G36*
G01X59014Y14073D02*
G01X58957Y13943D01*
G01X58815Y13958D01*
G01X58899Y13843D01*
G01X58846Y13770D01*
G01X58888D01*
G01X58927Y13823D01*
G01X58942Y13843D01*
G01X58927Y13863D01*
G01X58888Y13916D01*
G01X58953Y13909D01*
G01X58978Y13906D01*
G01X58988Y13929D01*
G01X59014Y13989D01*
G01X59041Y13929D01*
G01X59051Y13906D01*
G01X59076Y13909D01*
G01X59140Y13916D01*
G01X59102Y13863D01*
G01X59087Y13843D01*
G01X59102Y13823D01*
G01X59140Y13770D01*
G01X59076Y13777D01*
G01X59051Y13780D01*
G01X59041Y13757D01*
G01X59014Y13697D01*
G01X58988Y13757D01*
G01X58978Y13780D01*
G01X58953Y13777D01*
G01X58888Y13770D01*
G01X58846D01*
G01X58815Y13728D01*
G01X58957Y13743D01*
G01X59014Y13613D01*
G01X59072Y13743D01*
G01X59214Y13728D01*
G01X59130Y13843D01*
G01X59214Y13958D01*
G01X59072Y13943D01*
G37*
G36*
G01X56474Y14073D02*
G01X56417Y13943D01*
G01X56275Y13958D01*
G01X56359Y13843D01*
G01X56306Y13770D01*
G01X56348D01*
G01X56387Y13823D01*
G01X56402Y13843D01*
G01X56387Y13863D01*
G01X56348Y13916D01*
G01X56413Y13909D01*
G01X56438Y13906D01*
G01X56448Y13929D01*
G01X56474Y13989D01*
G01X56501Y13929D01*
G01X56511Y13906D01*
G01X56536Y13909D01*
G01X56600Y13916D01*
G01X56562Y13863D01*
G01X56547Y13843D01*
G01X56562Y13823D01*
G01X56600Y13770D01*
G01X56536Y13777D01*
G01X56511Y13780D01*
G01X56501Y13757D01*
G01X56474Y13697D01*
G01X56448Y13757D01*
G01X56438Y13780D01*
G01X56413Y13777D01*
G01X56348Y13770D01*
G01X56306D01*
G01X56275Y13728D01*
G01X56417Y13743D01*
G01X56474Y13613D01*
G01X56532Y13743D01*
G01X56674Y13728D01*
G01X56590Y13843D01*
G01X56674Y13958D01*
G01X56532Y13943D01*
G37*
G36*
G01X53934Y14073D02*
G01X53877Y13943D01*
G01X53735Y13958D01*
G01X53819Y13843D01*
G01X53766Y13770D01*
G01X53808D01*
G01X53847Y13823D01*
G01X53862Y13843D01*
G01X53847Y13863D01*
G01X53808Y13916D01*
G01X53873Y13909D01*
G01X53898Y13906D01*
G01X53908Y13929D01*
G01X53934Y13989D01*
G01X53961Y13929D01*
G01X53971Y13906D01*
G01X53996Y13909D01*
G01X54060Y13916D01*
G01X54022Y13863D01*
G01X54007Y13843D01*
G01X54022Y13823D01*
G01X54060Y13770D01*
G01X53996Y13777D01*
G01X53971Y13780D01*
G01X53961Y13757D01*
G01X53934Y13697D01*
G01X53908Y13757D01*
G01X53898Y13780D01*
G01X53873Y13777D01*
G01X53808Y13770D01*
G01X53766D01*
G01X53735Y13728D01*
G01X53877Y13743D01*
G01X53934Y13613D01*
G01X53992Y13743D01*
G01X54134Y13728D01*
G01X54050Y13843D01*
G01X54134Y13958D01*
G01X53992Y13943D01*
G37*
G36*
G01X51394Y14073D02*
G01X51337Y13943D01*
G01X51195Y13958D01*
G01X51279Y13843D01*
G01X51226Y13770D01*
G01X51268D01*
G01X51307Y13823D01*
G01X51322Y13843D01*
G01X51307Y13863D01*
G01X51268Y13916D01*
G01X51333Y13909D01*
G01X51358Y13906D01*
G01X51368Y13929D01*
G01X51394Y13989D01*
G01X51421Y13929D01*
G01X51431Y13906D01*
G01X51456Y13909D01*
G01X51520Y13916D01*
G01X51482Y13863D01*
G01X51467Y13843D01*
G01X51482Y13823D01*
G01X51520Y13770D01*
G01X51456Y13777D01*
G01X51431Y13780D01*
G01X51421Y13757D01*
G01X51394Y13697D01*
G01X51368Y13757D01*
G01X51358Y13780D01*
G01X51333Y13777D01*
G01X51268Y13770D01*
G01X51226D01*
G01X51195Y13728D01*
G01X51337Y13743D01*
G01X51394Y13613D01*
G01X51452Y13743D01*
G01X51594Y13728D01*
G01X51510Y13843D01*
G01X51594Y13958D01*
G01X51452Y13943D01*
G37*
G36*
G01X48854Y14073D02*
G01X48797Y13943D01*
G01X48655Y13958D01*
G01X48739Y13843D01*
G01X48686Y13770D01*
G01X48728D01*
G01X48767Y13823D01*
G01X48782Y13843D01*
G01X48767Y13863D01*
G01X48728Y13916D01*
G01X48793Y13909D01*
G01X48818Y13906D01*
G01X48828Y13929D01*
G01X48854Y13989D01*
G01X48881Y13929D01*
G01X48891Y13906D01*
G01X48916Y13909D01*
G01X48980Y13916D01*
G01X48942Y13863D01*
G01X48927Y13843D01*
G01X48942Y13823D01*
G01X48980Y13770D01*
G01X48916Y13777D01*
G01X48891Y13780D01*
G01X48881Y13757D01*
G01X48854Y13697D01*
G01X48828Y13757D01*
G01X48818Y13780D01*
G01X48793Y13777D01*
G01X48728Y13770D01*
G01X48686D01*
G01X48655Y13728D01*
G01X48797Y13743D01*
G01X48854Y13613D01*
G01X48912Y13743D01*
G01X49054Y13728D01*
G01X48970Y13843D01*
G01X49054Y13958D01*
G01X48912Y13943D01*
G37*
G36*
G01X46314Y14073D02*
G01X46257Y13943D01*
G01X46115Y13958D01*
G01X46199Y13843D01*
G01X46146Y13770D01*
G01X46188D01*
G01X46227Y13823D01*
G01X46242Y13843D01*
G01X46227Y13863D01*
G01X46188Y13916D01*
G01X46253Y13909D01*
G01X46278Y13906D01*
G01X46288Y13929D01*
G01X46314Y13989D01*
G01X46341Y13929D01*
G01X46351Y13906D01*
G01X46376Y13909D01*
G01X46440Y13916D01*
G01X46402Y13863D01*
G01X46387Y13843D01*
G01X46402Y13823D01*
G01X46440Y13770D01*
G01X46376Y13777D01*
G01X46351Y13780D01*
G01X46341Y13757D01*
G01X46314Y13697D01*
G01X46288Y13757D01*
G01X46278Y13780D01*
G01X46253Y13777D01*
G01X46188Y13770D01*
G01X46146D01*
G01X46115Y13728D01*
G01X46257Y13743D01*
G01X46314Y13613D01*
G01X46372Y13743D01*
G01X46514Y13728D01*
G01X46430Y13843D01*
G01X46514Y13958D01*
G01X46372Y13943D01*
G37*
G36*
G01X43774Y14073D02*
G01X43717Y13943D01*
G01X43575Y13958D01*
G01X43659Y13843D01*
G01X43606Y13770D01*
G01X43648D01*
G01X43687Y13823D01*
G01X43702Y13843D01*
G01X43687Y13863D01*
G01X43648Y13916D01*
G01X43713Y13909D01*
G01X43738Y13906D01*
G01X43748Y13929D01*
G01X43774Y13989D01*
G01X43801Y13929D01*
G01X43811Y13906D01*
G01X43836Y13909D01*
G01X43900Y13916D01*
G01X43862Y13863D01*
G01X43847Y13843D01*
G01X43862Y13823D01*
G01X43900Y13770D01*
G01X43836Y13777D01*
G01X43811Y13780D01*
G01X43801Y13757D01*
G01X43774Y13697D01*
G01X43748Y13757D01*
G01X43738Y13780D01*
G01X43713Y13777D01*
G01X43648Y13770D01*
G01X43606D01*
G01X43575Y13728D01*
G01X43717Y13743D01*
G01X43774Y13613D01*
G01X43832Y13743D01*
G01X43974Y13728D01*
G01X43890Y13843D01*
G01X43974Y13958D01*
G01X43832Y13943D01*
G37*
G36*
G01X41234Y14073D02*
G01X41177Y13943D01*
G01X41035Y13958D01*
G01X41119Y13843D01*
G01X41066Y13770D01*
G01X41108D01*
G01X41147Y13823D01*
G01X41162Y13843D01*
G01X41147Y13863D01*
G01X41108Y13916D01*
G01X41173Y13909D01*
G01X41198Y13906D01*
G01X41208Y13929D01*
G01X41234Y13989D01*
G01X41261Y13929D01*
G01X41271Y13906D01*
G01X41296Y13909D01*
G01X41360Y13916D01*
G01X41322Y13863D01*
G01X41307Y13843D01*
G01X41322Y13823D01*
G01X41360Y13770D01*
G01X41296Y13777D01*
G01X41271Y13780D01*
G01X41261Y13757D01*
G01X41234Y13697D01*
G01X41208Y13757D01*
G01X41198Y13780D01*
G01X41173Y13777D01*
G01X41108Y13770D01*
G01X41066D01*
G01X41035Y13728D01*
G01X41177Y13743D01*
G01X41234Y13613D01*
G01X41292Y13743D01*
G01X41434Y13728D01*
G01X41350Y13843D01*
G01X41434Y13958D01*
G01X41292Y13943D01*
G37*
G36*
G01X38694Y14073D02*
G01X38637Y13943D01*
G01X38495Y13958D01*
G01X38579Y13843D01*
G01X38526Y13770D01*
G01X38568D01*
G01X38607Y13823D01*
G01X38622Y13843D01*
G01X38607Y13863D01*
G01X38568Y13916D01*
G01X38633Y13909D01*
G01X38658Y13906D01*
G01X38668Y13929D01*
G01X38694Y13989D01*
G01X38721Y13929D01*
G01X38731Y13906D01*
G01X38756Y13909D01*
G01X38820Y13916D01*
G01X38782Y13863D01*
G01X38767Y13843D01*
G01X38782Y13823D01*
G01X38820Y13770D01*
G01X38756Y13777D01*
G01X38731Y13780D01*
G01X38721Y13757D01*
G01X38694Y13697D01*
G01X38668Y13757D01*
G01X38658Y13780D01*
G01X38633Y13777D01*
G01X38568Y13770D01*
G01X38526D01*
G01X38495Y13728D01*
G01X38637Y13743D01*
G01X38694Y13613D01*
G01X38752Y13743D01*
G01X38894Y13728D01*
G01X38810Y13843D01*
G01X38894Y13958D01*
G01X38752Y13943D01*
G37*
G36*
G01X36154Y14073D02*
G01X36097Y13943D01*
G01X35955Y13958D01*
G01X36039Y13843D01*
G01X35986Y13770D01*
G01X36028D01*
G01X36067Y13823D01*
G01X36082Y13843D01*
G01X36067Y13863D01*
G01X36028Y13916D01*
G01X36093Y13909D01*
G01X36118Y13906D01*
G01X36128Y13929D01*
G01X36154Y13989D01*
G01X36181Y13929D01*
G01X36191Y13906D01*
G01X36216Y13909D01*
G01X36280Y13916D01*
G01X36242Y13863D01*
G01X36227Y13843D01*
G01X36242Y13823D01*
G01X36280Y13770D01*
G01X36216Y13777D01*
G01X36191Y13780D01*
G01X36181Y13757D01*
G01X36154Y13697D01*
G01X36128Y13757D01*
G01X36118Y13780D01*
G01X36093Y13777D01*
G01X36028Y13770D01*
G01X35986D01*
G01X35955Y13728D01*
G01X36097Y13743D01*
G01X36154Y13613D01*
G01X36212Y13743D01*
G01X36354Y13728D01*
G01X36270Y13843D01*
G01X36354Y13958D01*
G01X36212Y13943D01*
G37*
G36*
G01X33614Y14073D02*
G01X33557Y13943D01*
G01X33415Y13958D01*
G01X33499Y13843D01*
G01X33446Y13770D01*
G01X33488D01*
G01X33527Y13823D01*
G01X33542Y13843D01*
G01X33527Y13863D01*
G01X33488Y13916D01*
G01X33553Y13909D01*
G01X33578Y13906D01*
G01X33588Y13929D01*
G01X33614Y13989D01*
G01X33641Y13929D01*
G01X33651Y13906D01*
G01X33676Y13909D01*
G01X33740Y13916D01*
G01X33702Y13863D01*
G01X33687Y13843D01*
G01X33702Y13823D01*
G01X33740Y13770D01*
G01X33676Y13777D01*
G01X33651Y13780D01*
G01X33641Y13757D01*
G01X33614Y13697D01*
G01X33588Y13757D01*
G01X33578Y13780D01*
G01X33553Y13777D01*
G01X33488Y13770D01*
G01X33446D01*
G01X33415Y13728D01*
G01X33557Y13743D01*
G01X33614Y13613D01*
G01X33672Y13743D01*
G01X33814Y13728D01*
G01X33730Y13843D01*
G01X33814Y13958D01*
G01X33672Y13943D01*
G37*
G36*
G01X31074Y14073D02*
G01X31017Y13943D01*
G01X30875Y13958D01*
G01X30959Y13843D01*
G01X30906Y13770D01*
G01X30948D01*
G01X30987Y13823D01*
G01X31002Y13843D01*
G01X30987Y13863D01*
G01X30948Y13916D01*
G01X31013Y13909D01*
G01X31038Y13906D01*
G01X31048Y13929D01*
G01X31074Y13989D01*
G01X31101Y13929D01*
G01X31111Y13906D01*
G01X31136Y13909D01*
G01X31200Y13916D01*
G01X31162Y13863D01*
G01X31147Y13843D01*
G01X31162Y13823D01*
G01X31200Y13770D01*
G01X31136Y13777D01*
G01X31111Y13780D01*
G01X31101Y13757D01*
G01X31074Y13697D01*
G01X31048Y13757D01*
G01X31038Y13780D01*
G01X31013Y13777D01*
G01X30948Y13770D01*
G01X30906D01*
G01X30875Y13728D01*
G01X31017Y13743D01*
G01X31074Y13613D01*
G01X31132Y13743D01*
G01X31274Y13728D01*
G01X31190Y13843D01*
G01X31274Y13958D01*
G01X31132Y13943D01*
G37*
G36*
G01X28534Y14073D02*
G01X28477Y13943D01*
G01X28335Y13958D01*
G01X28419Y13843D01*
G01X28366Y13770D01*
G01X28408D01*
G01X28447Y13823D01*
G01X28462Y13843D01*
G01X28447Y13863D01*
G01X28408Y13916D01*
G01X28473Y13909D01*
G01X28498Y13906D01*
G01X28508Y13929D01*
G01X28534Y13989D01*
G01X28561Y13929D01*
G01X28571Y13906D01*
G01X28596Y13909D01*
G01X28660Y13916D01*
G01X28622Y13863D01*
G01X28607Y13843D01*
G01X28622Y13823D01*
G01X28660Y13770D01*
G01X28596Y13777D01*
G01X28571Y13780D01*
G01X28561Y13757D01*
G01X28534Y13697D01*
G01X28508Y13757D01*
G01X28498Y13780D01*
G01X28473Y13777D01*
G01X28408Y13770D01*
G01X28366D01*
G01X28335Y13728D01*
G01X28477Y13743D01*
G01X28534Y13613D01*
G01X28592Y13743D01*
G01X28734Y13728D01*
G01X28650Y13843D01*
G01X28734Y13958D01*
G01X28592Y13943D01*
G37*
G36*
G01X25994Y14073D02*
G01X25937Y13943D01*
G01X25795Y13958D01*
G01X25879Y13843D01*
G01X25826Y13770D01*
G01X25868D01*
G01X25907Y13823D01*
G01X25922Y13843D01*
G01X25907Y13863D01*
G01X25868Y13916D01*
G01X25933Y13909D01*
G01X25958Y13906D01*
G01X25968Y13929D01*
G01X25994Y13989D01*
G01X26021Y13929D01*
G01X26031Y13906D01*
G01X26056Y13909D01*
G01X26120Y13916D01*
G01X26082Y13863D01*
G01X26067Y13843D01*
G01X26082Y13823D01*
G01X26120Y13770D01*
G01X26056Y13777D01*
G01X26031Y13780D01*
G01X26021Y13757D01*
G01X25994Y13697D01*
G01X25968Y13757D01*
G01X25958Y13780D01*
G01X25933Y13777D01*
G01X25868Y13770D01*
G01X25826D01*
G01X25795Y13728D01*
G01X25937Y13743D01*
G01X25994Y13613D01*
G01X26052Y13743D01*
G01X26194Y13728D01*
G01X26110Y13843D01*
G01X26194Y13958D01*
G01X26052Y13943D01*
G37*
G36*
G01X23454Y14073D02*
G01X23397Y13943D01*
G01X23255Y13958D01*
G01X23339Y13843D01*
G01X23286Y13770D01*
G01X23328D01*
G01X23367Y13823D01*
G01X23382Y13843D01*
G01X23367Y13863D01*
G01X23328Y13916D01*
G01X23393Y13909D01*
G01X23418Y13906D01*
G01X23428Y13929D01*
G01X23454Y13989D01*
G01X23481Y13929D01*
G01X23491Y13906D01*
G01X23516Y13909D01*
G01X23580Y13916D01*
G01X23542Y13863D01*
G01X23527Y13843D01*
G01X23542Y13823D01*
G01X23580Y13770D01*
G01X23516Y13777D01*
G01X23491Y13780D01*
G01X23481Y13757D01*
G01X23454Y13697D01*
G01X23428Y13757D01*
G01X23418Y13780D01*
G01X23393Y13777D01*
G01X23328Y13770D01*
G01X23286D01*
G01X23255Y13728D01*
G01X23397Y13743D01*
G01X23454Y13613D01*
G01X23512Y13743D01*
G01X23654Y13728D01*
G01X23570Y13843D01*
G01X23654Y13958D01*
G01X23512Y13943D01*
G37*
G36*
G01X59014Y39473D02*
G01X58957Y39343D01*
G01X58815Y39358D01*
G01X58899Y39243D01*
G01X58846Y39170D01*
G01X58888D01*
G01X58927Y39223D01*
G01X58942Y39243D01*
G01X58927Y39263D01*
G01X58888Y39316D01*
G01X58953Y39309D01*
G01X58978Y39306D01*
G01X58988Y39329D01*
G01X59014Y39389D01*
G01X59041Y39329D01*
G01X59051Y39306D01*
G01X59076Y39309D01*
G01X59140Y39316D01*
G01X59102Y39263D01*
G01X59087Y39243D01*
G01X59102Y39223D01*
G01X59140Y39170D01*
G01X59076Y39177D01*
G01X59051Y39180D01*
G01X59041Y39157D01*
G01X59014Y39097D01*
G01X58988Y39157D01*
G01X58978Y39180D01*
G01X58953Y39177D01*
G01X58888Y39170D01*
G01X58846D01*
G01X58815Y39128D01*
G01X58957Y39143D01*
G01X59014Y39013D01*
G01X59072Y39143D01*
G01X59214Y39128D01*
G01X59130Y39243D01*
G01X59214Y39358D01*
G01X59072Y39343D01*
G37*
G36*
G01X56474Y39473D02*
G01X56417Y39343D01*
G01X56275Y39358D01*
G01X56359Y39243D01*
G01X56306Y39170D01*
G01X56348D01*
G01X56387Y39223D01*
G01X56402Y39243D01*
G01X56387Y39263D01*
G01X56348Y39316D01*
G01X56413Y39309D01*
G01X56438Y39306D01*
G01X56448Y39329D01*
G01X56474Y39389D01*
G01X56501Y39329D01*
G01X56511Y39306D01*
G01X56536Y39309D01*
G01X56600Y39316D01*
G01X56562Y39263D01*
G01X56547Y39243D01*
G01X56562Y39223D01*
G01X56600Y39170D01*
G01X56536Y39177D01*
G01X56511Y39180D01*
G01X56501Y39157D01*
G01X56474Y39097D01*
G01X56448Y39157D01*
G01X56438Y39180D01*
G01X56413Y39177D01*
G01X56348Y39170D01*
G01X56306D01*
G01X56275Y39128D01*
G01X56417Y39143D01*
G01X56474Y39013D01*
G01X56532Y39143D01*
G01X56674Y39128D01*
G01X56590Y39243D01*
G01X56674Y39358D01*
G01X56532Y39343D01*
G37*
G36*
G01X53934Y39473D02*
G01X53877Y39343D01*
G01X53735Y39358D01*
G01X53819Y39243D01*
G01X53766Y39170D01*
G01X53808D01*
G01X53847Y39223D01*
G01X53862Y39243D01*
G01X53847Y39263D01*
G01X53808Y39316D01*
G01X53873Y39309D01*
G01X53898Y39306D01*
G01X53908Y39329D01*
G01X53934Y39389D01*
G01X53961Y39329D01*
G01X53971Y39306D01*
G01X53996Y39309D01*
G01X54060Y39316D01*
G01X54022Y39263D01*
G01X54007Y39243D01*
G01X54022Y39223D01*
G01X54060Y39170D01*
G01X53996Y39177D01*
G01X53971Y39180D01*
G01X53961Y39157D01*
G01X53934Y39097D01*
G01X53908Y39157D01*
G01X53898Y39180D01*
G01X53873Y39177D01*
G01X53808Y39170D01*
G01X53766D01*
G01X53735Y39128D01*
G01X53877Y39143D01*
G01X53934Y39013D01*
G01X53992Y39143D01*
G01X54134Y39128D01*
G01X54050Y39243D01*
G01X54134Y39358D01*
G01X53992Y39343D01*
G37*
G36*
G01X51394Y39473D02*
G01X51337Y39343D01*
G01X51195Y39358D01*
G01X51279Y39243D01*
G01X51226Y39170D01*
G01X51268D01*
G01X51307Y39223D01*
G01X51322Y39243D01*
G01X51307Y39263D01*
G01X51268Y39316D01*
G01X51333Y39309D01*
G01X51358Y39306D01*
G01X51368Y39329D01*
G01X51394Y39389D01*
G01X51421Y39329D01*
G01X51431Y39306D01*
G01X51456Y39309D01*
G01X51520Y39316D01*
G01X51482Y39263D01*
G01X51467Y39243D01*
G01X51482Y39223D01*
G01X51520Y39170D01*
G01X51456Y39177D01*
G01X51431Y39180D01*
G01X51421Y39157D01*
G01X51394Y39097D01*
G01X51368Y39157D01*
G01X51358Y39180D01*
G01X51333Y39177D01*
G01X51268Y39170D01*
G01X51226D01*
G01X51195Y39128D01*
G01X51337Y39143D01*
G01X51394Y39013D01*
G01X51452Y39143D01*
G01X51594Y39128D01*
G01X51510Y39243D01*
G01X51594Y39358D01*
G01X51452Y39343D01*
G37*
G36*
G01X48854Y39473D02*
G01X48797Y39343D01*
G01X48655Y39358D01*
G01X48739Y39243D01*
G01X48686Y39170D01*
G01X48728D01*
G01X48767Y39223D01*
G01X48782Y39243D01*
G01X48767Y39263D01*
G01X48728Y39316D01*
G01X48793Y39309D01*
G01X48818Y39306D01*
G01X48828Y39329D01*
G01X48854Y39389D01*
G01X48881Y39329D01*
G01X48891Y39306D01*
G01X48916Y39309D01*
G01X48980Y39316D01*
G01X48942Y39263D01*
G01X48927Y39243D01*
G01X48942Y39223D01*
G01X48980Y39170D01*
G01X48916Y39177D01*
G01X48891Y39180D01*
G01X48881Y39157D01*
G01X48854Y39097D01*
G01X48828Y39157D01*
G01X48818Y39180D01*
G01X48793Y39177D01*
G01X48728Y39170D01*
G01X48686D01*
G01X48655Y39128D01*
G01X48797Y39143D01*
G01X48854Y39013D01*
G01X48912Y39143D01*
G01X49054Y39128D01*
G01X48970Y39243D01*
G01X49054Y39358D01*
G01X48912Y39343D01*
G37*
G36*
G01X46314Y39473D02*
G01X46257Y39343D01*
G01X46115Y39358D01*
G01X46199Y39243D01*
G01X46146Y39170D01*
G01X46188D01*
G01X46227Y39223D01*
G01X46242Y39243D01*
G01X46227Y39263D01*
G01X46188Y39316D01*
G01X46253Y39309D01*
G01X46278Y39306D01*
G01X46288Y39329D01*
G01X46314Y39389D01*
G01X46341Y39329D01*
G01X46351Y39306D01*
G01X46376Y39309D01*
G01X46440Y39316D01*
G01X46402Y39263D01*
G01X46387Y39243D01*
G01X46402Y39223D01*
G01X46440Y39170D01*
G01X46376Y39177D01*
G01X46351Y39180D01*
G01X46341Y39157D01*
G01X46314Y39097D01*
G01X46288Y39157D01*
G01X46278Y39180D01*
G01X46253Y39177D01*
G01X46188Y39170D01*
G01X46146D01*
G01X46115Y39128D01*
G01X46257Y39143D01*
G01X46314Y39013D01*
G01X46372Y39143D01*
G01X46514Y39128D01*
G01X46430Y39243D01*
G01X46514Y39358D01*
G01X46372Y39343D01*
G37*
G36*
G01X43774Y39473D02*
G01X43717Y39343D01*
G01X43575Y39358D01*
G01X43659Y39243D01*
G01X43606Y39170D01*
G01X43648D01*
G01X43687Y39223D01*
G01X43702Y39243D01*
G01X43687Y39263D01*
G01X43648Y39316D01*
G01X43713Y39309D01*
G01X43738Y39306D01*
G01X43748Y39329D01*
G01X43774Y39389D01*
G01X43801Y39329D01*
G01X43811Y39306D01*
G01X43836Y39309D01*
G01X43900Y39316D01*
G01X43862Y39263D01*
G01X43847Y39243D01*
G01X43862Y39223D01*
G01X43900Y39170D01*
G01X43836Y39177D01*
G01X43811Y39180D01*
G01X43801Y39157D01*
G01X43774Y39097D01*
G01X43748Y39157D01*
G01X43738Y39180D01*
G01X43713Y39177D01*
G01X43648Y39170D01*
G01X43606D01*
G01X43575Y39128D01*
G01X43717Y39143D01*
G01X43774Y39013D01*
G01X43832Y39143D01*
G01X43974Y39128D01*
G01X43890Y39243D01*
G01X43974Y39358D01*
G01X43832Y39343D01*
G37*
G36*
G01X41234Y39473D02*
G01X41177Y39343D01*
G01X41035Y39358D01*
G01X41119Y39243D01*
G01X41066Y39170D01*
G01X41108D01*
G01X41147Y39223D01*
G01X41162Y39243D01*
G01X41147Y39263D01*
G01X41108Y39316D01*
G01X41173Y39309D01*
G01X41198Y39306D01*
G01X41208Y39329D01*
G01X41234Y39389D01*
G01X41261Y39329D01*
G01X41271Y39306D01*
G01X41296Y39309D01*
G01X41360Y39316D01*
G01X41322Y39263D01*
G01X41307Y39243D01*
G01X41322Y39223D01*
G01X41360Y39170D01*
G01X41296Y39177D01*
G01X41271Y39180D01*
G01X41261Y39157D01*
G01X41234Y39097D01*
G01X41208Y39157D01*
G01X41198Y39180D01*
G01X41173Y39177D01*
G01X41108Y39170D01*
G01X41066D01*
G01X41035Y39128D01*
G01X41177Y39143D01*
G01X41234Y39013D01*
G01X41292Y39143D01*
G01X41434Y39128D01*
G01X41350Y39243D01*
G01X41434Y39358D01*
G01X41292Y39343D01*
G37*
G36*
G01X38694Y39473D02*
G01X38637Y39343D01*
G01X38495Y39358D01*
G01X38579Y39243D01*
G01X38526Y39170D01*
G01X38568D01*
G01X38607Y39223D01*
G01X38622Y39243D01*
G01X38607Y39263D01*
G01X38568Y39316D01*
G01X38633Y39309D01*
G01X38658Y39306D01*
G01X38668Y39329D01*
G01X38694Y39389D01*
G01X38721Y39329D01*
G01X38731Y39306D01*
G01X38756Y39309D01*
G01X38820Y39316D01*
G01X38782Y39263D01*
G01X38767Y39243D01*
G01X38782Y39223D01*
G01X38820Y39170D01*
G01X38756Y39177D01*
G01X38731Y39180D01*
G01X38721Y39157D01*
G01X38694Y39097D01*
G01X38668Y39157D01*
G01X38658Y39180D01*
G01X38633Y39177D01*
G01X38568Y39170D01*
G01X38526D01*
G01X38495Y39128D01*
G01X38637Y39143D01*
G01X38694Y39013D01*
G01X38752Y39143D01*
G01X38894Y39128D01*
G01X38810Y39243D01*
G01X38894Y39358D01*
G01X38752Y39343D01*
G37*
G36*
G01X36154Y39473D02*
G01X36097Y39343D01*
G01X35955Y39358D01*
G01X36039Y39243D01*
G01X35986Y39170D01*
G01X36028D01*
G01X36067Y39223D01*
G01X36082Y39243D01*
G01X36067Y39263D01*
G01X36028Y39316D01*
G01X36093Y39309D01*
G01X36118Y39306D01*
G01X36128Y39329D01*
G01X36154Y39389D01*
G01X36181Y39329D01*
G01X36191Y39306D01*
G01X36216Y39309D01*
G01X36280Y39316D01*
G01X36242Y39263D01*
G01X36227Y39243D01*
G01X36242Y39223D01*
G01X36280Y39170D01*
G01X36216Y39177D01*
G01X36191Y39180D01*
G01X36181Y39157D01*
G01X36154Y39097D01*
G01X36128Y39157D01*
G01X36118Y39180D01*
G01X36093Y39177D01*
G01X36028Y39170D01*
G01X35986D01*
G01X35955Y39128D01*
G01X36097Y39143D01*
G01X36154Y39013D01*
G01X36212Y39143D01*
G01X36354Y39128D01*
G01X36270Y39243D01*
G01X36354Y39358D01*
G01X36212Y39343D01*
G37*
G36*
G01X33614Y39473D02*
G01X33557Y39343D01*
G01X33415Y39358D01*
G01X33499Y39243D01*
G01X33446Y39170D01*
G01X33488D01*
G01X33527Y39223D01*
G01X33542Y39243D01*
G01X33527Y39263D01*
G01X33488Y39316D01*
G01X33553Y39309D01*
G01X33578Y39306D01*
G01X33588Y39329D01*
G01X33614Y39389D01*
G01X33641Y39329D01*
G01X33651Y39306D01*
G01X33676Y39309D01*
G01X33740Y39316D01*
G01X33702Y39263D01*
G01X33687Y39243D01*
G01X33702Y39223D01*
G01X33740Y39170D01*
G01X33676Y39177D01*
G01X33651Y39180D01*
G01X33641Y39157D01*
G01X33614Y39097D01*
G01X33588Y39157D01*
G01X33578Y39180D01*
G01X33553Y39177D01*
G01X33488Y39170D01*
G01X33446D01*
G01X33415Y39128D01*
G01X33557Y39143D01*
G01X33614Y39013D01*
G01X33672Y39143D01*
G01X33814Y39128D01*
G01X33730Y39243D01*
G01X33814Y39358D01*
G01X33672Y39343D01*
G37*
G36*
G01X31074Y39473D02*
G01X31017Y39343D01*
G01X30875Y39358D01*
G01X30959Y39243D01*
G01X30906Y39170D01*
G01X30948D01*
G01X30987Y39223D01*
G01X31002Y39243D01*
G01X30987Y39263D01*
G01X30948Y39316D01*
G01X31013Y39309D01*
G01X31038Y39306D01*
G01X31048Y39329D01*
G01X31074Y39389D01*
G01X31101Y39329D01*
G01X31111Y39306D01*
G01X31136Y39309D01*
G01X31200Y39316D01*
G01X31162Y39263D01*
G01X31147Y39243D01*
G01X31162Y39223D01*
G01X31200Y39170D01*
G01X31136Y39177D01*
G01X31111Y39180D01*
G01X31101Y39157D01*
G01X31074Y39097D01*
G01X31048Y39157D01*
G01X31038Y39180D01*
G01X31013Y39177D01*
G01X30948Y39170D01*
G01X30906D01*
G01X30875Y39128D01*
G01X31017Y39143D01*
G01X31074Y39013D01*
G01X31132Y39143D01*
G01X31274Y39128D01*
G01X31190Y39243D01*
G01X31274Y39358D01*
G01X31132Y39343D01*
G37*
G36*
G01X28534Y39473D02*
G01X28477Y39343D01*
G01X28335Y39358D01*
G01X28419Y39243D01*
G01X28366Y39170D01*
G01X28408D01*
G01X28447Y39223D01*
G01X28462Y39243D01*
G01X28447Y39263D01*
G01X28408Y39316D01*
G01X28473Y39309D01*
G01X28498Y39306D01*
G01X28508Y39329D01*
G01X28534Y39389D01*
G01X28561Y39329D01*
G01X28571Y39306D01*
G01X28596Y39309D01*
G01X28660Y39316D01*
G01X28622Y39263D01*
G01X28607Y39243D01*
G01X28622Y39223D01*
G01X28660Y39170D01*
G01X28596Y39177D01*
G01X28571Y39180D01*
G01X28561Y39157D01*
G01X28534Y39097D01*
G01X28508Y39157D01*
G01X28498Y39180D01*
G01X28473Y39177D01*
G01X28408Y39170D01*
G01X28366D01*
G01X28335Y39128D01*
G01X28477Y39143D01*
G01X28534Y39013D01*
G01X28592Y39143D01*
G01X28734Y39128D01*
G01X28650Y39243D01*
G01X28734Y39358D01*
G01X28592Y39343D01*
G37*
G36*
G01X25994Y39473D02*
G01X25937Y39343D01*
G01X25795Y39358D01*
G01X25879Y39243D01*
G01X25826Y39170D01*
G01X25868D01*
G01X25907Y39223D01*
G01X25922Y39243D01*
G01X25907Y39263D01*
G01X25868Y39316D01*
G01X25933Y39309D01*
G01X25958Y39306D01*
G01X25968Y39329D01*
G01X25994Y39389D01*
G01X26021Y39329D01*
G01X26031Y39306D01*
G01X26056Y39309D01*
G01X26120Y39316D01*
G01X26082Y39263D01*
G01X26067Y39243D01*
G01X26082Y39223D01*
G01X26120Y39170D01*
G01X26056Y39177D01*
G01X26031Y39180D01*
G01X26021Y39157D01*
G01X25994Y39097D01*
G01X25968Y39157D01*
G01X25958Y39180D01*
G01X25933Y39177D01*
G01X25868Y39170D01*
G01X25826D01*
G01X25795Y39128D01*
G01X25937Y39143D01*
G01X25994Y39013D01*
G01X26052Y39143D01*
G01X26194Y39128D01*
G01X26110Y39243D01*
G01X26194Y39358D01*
G01X26052Y39343D01*
G37*
G36*
G01X23454Y39473D02*
G01X23397Y39343D01*
G01X23255Y39358D01*
G01X23339Y39243D01*
G01X23286Y39170D01*
G01X23328D01*
G01X23367Y39223D01*
G01X23382Y39243D01*
G01X23367Y39263D01*
G01X23328Y39316D01*
G01X23393Y39309D01*
G01X23418Y39306D01*
G01X23428Y39329D01*
G01X23454Y39389D01*
G01X23481Y39329D01*
G01X23491Y39306D01*
G01X23516Y39309D01*
G01X23580Y39316D01*
G01X23542Y39263D01*
G01X23527Y39243D01*
G01X23542Y39223D01*
G01X23580Y39170D01*
G01X23516Y39177D01*
G01X23491Y39180D01*
G01X23481Y39157D01*
G01X23454Y39097D01*
G01X23428Y39157D01*
G01X23418Y39180D01*
G01X23393Y39177D01*
G01X23328Y39170D01*
G01X23286D01*
G01X23255Y39128D01*
G01X23397Y39143D01*
G01X23454Y39013D01*
G01X23512Y39143D01*
G01X23654Y39128D01*
G01X23570Y39243D01*
G01X23654Y39358D01*
G01X23512Y39343D01*
G37*
G36*
G01X15748Y14073D02*
G01X15691Y13943D01*
G01X15549Y13958D01*
G01X15633Y13843D01*
G01X15580Y13770D01*
G01X15622D01*
G01X15661Y13823D01*
G01X15675Y13843D01*
G01X15661Y13863D01*
G01X15622Y13916D01*
G01X15687Y13909D01*
G01X15711Y13906D01*
G01X15722Y13929D01*
G01X15748Y13989D01*
G01X15774Y13929D01*
G01X15785Y13906D01*
G01X15809Y13909D01*
G01X15874Y13916D01*
G01X15835Y13863D01*
G01X15821Y13843D01*
G01X15835Y13823D01*
G01X15874Y13770D01*
G01X15809Y13777D01*
G01X15785Y13780D01*
G01X15774Y13757D01*
G01X15748Y13697D01*
G01X15722Y13757D01*
G01X15711Y13780D01*
G01X15687Y13777D01*
G01X15622Y13770D01*
G01X15580D01*
G01X15549Y13728D01*
G01X15691Y13743D01*
G01X15748Y13613D01*
G01X15805Y13743D01*
G01X15948Y13728D01*
G01X15863Y13843D01*
G01X15948Y13958D01*
G01X15805Y13943D01*
G37*
G36*
G01X13208Y14073D02*
G01X13151Y13943D01*
G01X13009Y13958D01*
G01X13093Y13843D01*
G01X13040Y13770D01*
G01X13082D01*
G01X13121Y13823D01*
G01X13135Y13843D01*
G01X13121Y13863D01*
G01X13082Y13916D01*
G01X13147Y13909D01*
G01X13171Y13906D01*
G01X13182Y13929D01*
G01X13208Y13989D01*
G01X13234Y13929D01*
G01X13245Y13906D01*
G01X13269Y13909D01*
G01X13334Y13916D01*
G01X13295Y13863D01*
G01X13281Y13843D01*
G01X13295Y13823D01*
G01X13334Y13770D01*
G01X13269Y13777D01*
G01X13245Y13780D01*
G01X13234Y13757D01*
G01X13208Y13697D01*
G01X13182Y13757D01*
G01X13171Y13780D01*
G01X13147Y13777D01*
G01X13082Y13770D01*
G01X13040D01*
G01X13009Y13728D01*
G01X13151Y13743D01*
G01X13208Y13613D01*
G01X13265Y13743D01*
G01X13408Y13728D01*
G01X13323Y13843D01*
G01X13408Y13958D01*
G01X13265Y13943D01*
G37*
G36*
G01X10668Y14073D02*
G01X10611Y13943D01*
G01X10469Y13958D01*
G01X10553Y13843D01*
G01X10500Y13770D01*
G01X10542D01*
G01X10581Y13823D01*
G01X10595Y13843D01*
G01X10581Y13863D01*
G01X10542Y13916D01*
G01X10607Y13909D01*
G01X10631Y13906D01*
G01X10642Y13929D01*
G01X10668Y13989D01*
G01X10694Y13929D01*
G01X10705Y13906D01*
G01X10729Y13909D01*
G01X10794Y13916D01*
G01X10755Y13863D01*
G01X10741Y13843D01*
G01X10755Y13823D01*
G01X10794Y13770D01*
G01X10729Y13777D01*
G01X10705Y13780D01*
G01X10694Y13757D01*
G01X10668Y13697D01*
G01X10642Y13757D01*
G01X10631Y13780D01*
G01X10607Y13777D01*
G01X10542Y13770D01*
G01X10500D01*
G01X10469Y13728D01*
G01X10611Y13743D01*
G01X10668Y13613D01*
G01X10725Y13743D01*
G01X10868Y13728D01*
G01X10783Y13843D01*
G01X10868Y13958D01*
G01X10725Y13943D01*
G37*
G36*
G01X8128Y14073D02*
G01X8071Y13943D01*
G01X7929Y13958D01*
G01X8013Y13843D01*
G01X7960Y13770D01*
G01X8002D01*
G01X8041Y13823D01*
G01X8055Y13843D01*
G01X8041Y13863D01*
G01X8002Y13916D01*
G01X8067Y13909D01*
G01X8091Y13906D01*
G01X8102Y13929D01*
G01X8128Y13989D01*
G01X8154Y13929D01*
G01X8165Y13906D01*
G01X8189Y13909D01*
G01X8254Y13916D01*
G01X8215Y13863D01*
G01X8201Y13843D01*
G01X8215Y13823D01*
G01X8254Y13770D01*
G01X8189Y13777D01*
G01X8165Y13780D01*
G01X8154Y13757D01*
G01X8128Y13697D01*
G01X8102Y13757D01*
G01X8091Y13780D01*
G01X8067Y13777D01*
G01X8002Y13770D01*
G01X7960D01*
G01X7929Y13728D01*
G01X8071Y13743D01*
G01X8128Y13613D01*
G01X8185Y13743D01*
G01X8328Y13728D01*
G01X8243Y13843D01*
G01X8328Y13958D01*
G01X8185Y13943D01*
G37*
G36*
G01X15748Y26773D02*
G01X15691Y26643D01*
G01X15549Y26658D01*
G01X15633Y26543D01*
G01X15580Y26470D01*
G01X15622D01*
G01X15661Y26523D01*
G01X15675Y26543D01*
G01X15661Y26563D01*
G01X15622Y26616D01*
G01X15687Y26609D01*
G01X15711Y26606D01*
G01X15722Y26629D01*
G01X15748Y26689D01*
G01X15774Y26629D01*
G01X15785Y26606D01*
G01X15809Y26609D01*
G01X15874Y26616D01*
G01X15835Y26563D01*
G01X15821Y26543D01*
G01X15835Y26523D01*
G01X15874Y26470D01*
G01X15809Y26477D01*
G01X15785Y26480D01*
G01X15774Y26457D01*
G01X15748Y26397D01*
G01X15722Y26457D01*
G01X15711Y26480D01*
G01X15687Y26477D01*
G01X15622Y26470D01*
G01X15580D01*
G01X15549Y26428D01*
G01X15691Y26443D01*
G01X15748Y26313D01*
G01X15805Y26443D01*
G01X15948Y26428D01*
G01X15863Y26543D01*
G01X15948Y26658D01*
G01X15805Y26643D01*
G37*
G36*
G01X13208Y26773D02*
G01X13151Y26643D01*
G01X13009Y26658D01*
G01X13093Y26543D01*
G01X13040Y26470D01*
G01X13082D01*
G01X13121Y26523D01*
G01X13135Y26543D01*
G01X13121Y26563D01*
G01X13082Y26616D01*
G01X13147Y26609D01*
G01X13171Y26606D01*
G01X13182Y26629D01*
G01X13208Y26689D01*
G01X13234Y26629D01*
G01X13245Y26606D01*
G01X13269Y26609D01*
G01X13334Y26616D01*
G01X13295Y26563D01*
G01X13281Y26543D01*
G01X13295Y26523D01*
G01X13334Y26470D01*
G01X13269Y26477D01*
G01X13245Y26480D01*
G01X13234Y26457D01*
G01X13208Y26397D01*
G01X13182Y26457D01*
G01X13171Y26480D01*
G01X13147Y26477D01*
G01X13082Y26470D01*
G01X13040D01*
G01X13009Y26428D01*
G01X13151Y26443D01*
G01X13208Y26313D01*
G01X13265Y26443D01*
G01X13408Y26428D01*
G01X13323Y26543D01*
G01X13408Y26658D01*
G01X13265Y26643D01*
G37*
G36*
G01X10668Y26773D02*
G01X10611Y26643D01*
G01X10469Y26658D01*
G01X10553Y26543D01*
G01X10500Y26470D01*
G01X10542D01*
G01X10581Y26523D01*
G01X10595Y26543D01*
G01X10581Y26563D01*
G01X10542Y26616D01*
G01X10607Y26609D01*
G01X10631Y26606D01*
G01X10642Y26629D01*
G01X10668Y26689D01*
G01X10694Y26629D01*
G01X10705Y26606D01*
G01X10729Y26609D01*
G01X10794Y26616D01*
G01X10755Y26563D01*
G01X10741Y26543D01*
G01X10755Y26523D01*
G01X10794Y26470D01*
G01X10729Y26477D01*
G01X10705Y26480D01*
G01X10694Y26457D01*
G01X10668Y26397D01*
G01X10642Y26457D01*
G01X10631Y26480D01*
G01X10607Y26477D01*
G01X10542Y26470D01*
G01X10500D01*
G01X10469Y26428D01*
G01X10611Y26443D01*
G01X10668Y26313D01*
G01X10725Y26443D01*
G01X10868Y26428D01*
G01X10783Y26543D01*
G01X10868Y26658D01*
G01X10725Y26643D01*
G37*
G36*
G01X8128Y26773D02*
G01X8071Y26643D01*
G01X7929Y26658D01*
G01X8013Y26543D01*
G01X7960Y26470D01*
G01X8002D01*
G01X8041Y26523D01*
G01X8055Y26543D01*
G01X8041Y26563D01*
G01X8002Y26616D01*
G01X8067Y26609D01*
G01X8091Y26606D01*
G01X8102Y26629D01*
G01X8128Y26689D01*
G01X8154Y26629D01*
G01X8165Y26606D01*
G01X8189Y26609D01*
G01X8254Y26616D01*
G01X8215Y26563D01*
G01X8201Y26543D01*
G01X8215Y26523D01*
G01X8254Y26470D01*
G01X8189Y26477D01*
G01X8165Y26480D01*
G01X8154Y26457D01*
G01X8128Y26397D01*
G01X8102Y26457D01*
G01X8091Y26480D01*
G01X8067Y26477D01*
G01X8002Y26470D01*
G01X7960D01*
G01X7929Y26428D01*
G01X8071Y26443D01*
G01X8128Y26313D01*
G01X8185Y26443D01*
G01X8328Y26428D01*
G01X8243Y26543D01*
G01X8328Y26658D01*
G01X8185Y26643D01*
G37*
G04 Image End*
G54D10*

M02*
